<svg xmlns="http://www.w3.org/2000/svg" fill="none" viewBox="0 0 28 28"><g clip-path="url(#a)"><path fill="#736451" fill-rule="evenodd" d="M25.994 19.506a.875.875 0 0 1 0 1.238l-7 7a.876.876 0 1 1-1.238-1.238L23.263 21H6.125a4.375 4.375 0 0 1-4.375-4.375v-14a.875.875 0 1 1 1.75 0v14a2.625 2.625 0 0 0 2.625 2.625h17.138l-5.508-5.505a.876.876 0 1 1 1.24-1.24l7 7Z" clip-rule="evenodd"/></g><defs><clipPath id="a"><path fill="#fff" d="M0 0h28v28H0z" transform="rotate(-90 14 14)"/></clipPath></defs></svg>