<svg xmlns="http://www.w3.org/2000/svg" fill="none" viewBox="0 0 35 35"><g clip-path="url(#a)"><path fill="#736451" fill-rule="evenodd" d="M0 17.598C0 26.298 6.319 33.533 14.583 35V22.36h-4.375V17.5h4.375v-3.89c0-4.374 2.82-6.804 6.806-6.804 1.263 0 2.625.194 3.888.388v4.473h-2.235c-2.14 0-2.625 1.069-2.625 2.43V17.5h4.666l-.777 4.86h-3.89V35C28.682 33.533 35 26.3 35 17.598 35 7.918 27.125 0 17.5 0S0 7.919 0 17.598Z" clip-rule="evenodd"/></g><defs><clipPath id="a"><path fill="#fff" d="M0 0h35v35H0z"/></clipPath></defs></svg>