<svg xmlns="http://www.w3.org/2000/svg" fill="none" viewBox="0 0 35 35"><path fill="#736451" d="M31.548 9.693a8.889 8.889 0 0 0-1.945-2.83 9.07 9.07 0 0 0-6.371-2.59 9.129 9.129 0 0 0-5.732 2.02 9.129 9.129 0 0 0-5.732-2.02 9.07 9.07 0 0 0-6.371 2.59 8.833 8.833 0 0 0-2.663 6.313c0 1.139.233 2.325.694 3.531.386 1.008.94 2.054 1.648 3.11C6.196 21.49 7.738 23.232 9.652 25c3.172 2.93 6.313 4.953 6.447 5.035l.81.52c.359.228.82.228 1.179 0l.81-.52c.133-.086 3.27-2.106 6.446-5.035 1.914-1.767 3.456-3.51 4.577-5.182.707-1.056 1.265-2.102 1.647-3.11.462-1.207.694-2.393.694-3.53a8.702 8.702 0 0 0-.714-3.484Z"/></svg>