<svg xmlns="http://www.w3.org/2000/svg" fill="none" viewBox="0 0 35 35"><g clip-path="url(#a)"><path fill="#736451" d="M17.495 11.664c-3.213 0-5.835 2.623-5.835 5.836s2.622 5.836 5.835 5.836c3.214 0 5.836-2.623 5.836-5.836s-2.622-5.836-5.836-5.836ZM34.998 17.5c0-2.417.022-4.811-.114-7.224-.136-2.802-.775-5.288-2.824-7.337C30.007.886 27.525.25 24.723.115 22.307-.02 19.912.001 17.5.001c-2.417 0-4.812-.022-7.224.114C7.474.251 4.988.89 2.94 2.94.886 4.992.25 7.474.115 10.276-.02 12.693.001 15.088.001 17.5s-.022 4.811.114 7.224c.136 2.802.775 5.288 2.824 7.337 2.053 2.053 4.535 2.688 7.337 2.824 2.417.136 4.812.114 7.224.114 2.416 0 4.811.022 7.223-.114 2.802-.136 5.289-.775 7.337-2.824 2.054-2.053 2.688-4.535 2.824-7.337.14-2.413.114-4.807.114-7.224Zm-17.503 8.98a8.966 8.966 0 0 1-8.979-8.98c0-4.969 4.01-8.98 8.98-8.98a8.966 8.966 0 0 1 8.978 8.98c0 4.969-4.01 8.98-8.979 8.98Zm9.347-16.23a2.094 2.094 0 0 1-2.097-2.097c0-1.16.937-2.097 2.097-2.097a2.094 2.094 0 0 1 1.938 2.9 2.093 2.093 0 0 1-1.938 1.294Z"/></g><defs><clipPath id="a"><path fill="#fff" d="M0 0h35v35H0z"/></clipPath></defs></svg>