<svg xmlns="http://www.w3.org/2000/svg" fill="none" viewBox="0 0 48 35"><path fill="#736451" d="M47.574 17.887a2.578 2.578 0 0 0-1.68-1.27 15.156 15.156 0 0 0-5.84-.293c.743-3.691.176-6.582-.39-8.3A2.715 2.715 0 0 0 36.5 6.186a15.76 15.76 0 0 0-5.352 2.286A18.105 18.105 0 0 0 25.642 1.5a2.754 2.754 0 0 0-3.282 0 18.105 18.105 0 0 0-5.507 6.973A15.762 15.762 0 0 0 11.5 6.187a2.715 2.715 0 0 0-3.164 1.836c-.566 1.72-1.133 4.61-.39 8.301a15.157 15.157 0 0 0-5.84.293 2.578 2.578 0 0 0-1.68 1.27 2.715 2.715 0 0 0-.274 2.09c.684 2.421 2.754 7.011 9.024 10.625 6.27 3.613 11.836 3.632 14.824 3.632 2.988 0 8.555 0 14.824-3.632 6.27-3.633 8.34-8.204 9.024-10.625a2.715 2.715 0 0 0-.274-2.09ZM36.988 8.473a.39.39 0 0 1 .45.273c.566 1.7 1.093 4.727-.06 8.633a.565.565 0 0 0-.038.176 21.765 21.765 0 0 1-1.914 4.297 24.26 24.26 0 0 1-5.04 6.093c1.446-2.558 2.598-6.015 2.598-10.508a22.795 22.795 0 0 0-.976-6.718 13.83 13.83 0 0 1 4.98-2.246ZM23.766 3.375a.39.39 0 0 1 .468 0c1.934 1.445 6.407 5.684 6.407 14.063 0 8.847-4.922 13.046-6.641 14.238-1.68-1.192-6.64-5.45-6.64-14.238 0-8.38 4.472-12.618 6.406-14.063ZM10.563 8.746a.39.39 0 0 1 .449-.273 13.83 13.83 0 0 1 4.98 2.246 22.795 22.795 0 0 0-.976 6.719c0 4.492 1.152 7.949 2.597 10.507a24.26 24.26 0 0 1-5.039-6.093 21.153 21.153 0 0 1-1.914-4.297.568.568 0 0 0-.039-.176c-1.152-3.906-.625-6.934-.059-8.633ZM2.418 19.352a.45.45 0 0 1 .02-.293.37.37 0 0 1 .234-.176c1.289-.332 3.32-.586 5.937-.078a22.734 22.734 0 0 0 1.934 4.218 26.503 26.503 0 0 0 7.793 8.477 23.982 23.982 0 0 1-7.988-2.91c-5.567-3.223-7.364-7.168-7.93-9.238Zm43.164 0c-.566 2.07-2.363 6.015-7.93 9.238a23.983 23.983 0 0 1-7.988 2.91 26.503 26.503 0 0 0 7.793-8.477 22.728 22.728 0 0 0 1.934-4.218c2.617-.508 4.648-.254 5.937.078a.372.372 0 0 1 .234.176c.04.092.047.195.02.293Z"/></svg>