<svg xmlns="http://www.w3.org/2000/svg" fill="none" viewBox="0 0 35 35"><path fill="#736451" d="M34.48 7.2c-1.218.54-2.526.904-3.902 1.069a6.81 6.81 0 0 0 2.987-3.76 13.562 13.562 0 0 1-4.314 1.648 6.795 6.795 0 0 0-11.576 6.198 19.29 19.29 0 0 1-14.003-7.1 6.79 6.79 0 0 0-.919 3.416 6.796 6.796 0 0 0 3.022 5.656 6.779 6.779 0 0 1-3.077-.85v.087a6.796 6.796 0 0 0 5.45 6.662c-1.001.27-2.05.31-3.069.116a6.797 6.797 0 0 0 6.347 4.717 13.632 13.632 0 0 1-8.438 2.909 13.84 13.84 0 0 1-1.622-.095 19.214 19.214 0 0 0 10.413 3.052c12.498 0 19.33-10.35 19.33-19.328 0-.292-.007-.586-.02-.878a13.81 13.81 0 0 0 3.388-3.515l.002-.004Z"/></svg>